<svg id="Laag_1" data-name="Laag 1" xmlns="http://www.w3.org/2000/svg" viewBox="0 0 50 100"><defs><style>.cls-1{fill:#154273;}.cls-2{fill:#fff;}</style></defs><title>logo-rooo</title><g id="Laag_1-2" data-name="Laag 1"><rect class="cls-1" width="50" height="100"/><path class="cls-2" d="M25.9,77.4H25V75h.9Zm3.9-10.7H29V64.3h.9v2.4ZM13.7,62.6c-.1,0-.5,0-.5.1s.2,0,.5.1c.7.1,1,.5,1.5.5a.67.67,0,0,0,.7-.9c0-.1-.1-.1-.1,0a.79.79,0,0,1-.8.5A2.5,2.5,0,0,0,13.7,62.6ZM8.9,65c.1.1.9,1.2-.4,1.6-.1,0-.1.1,0,.1a1.34,1.34,0,0,0,1.5-.4A1.36,1.36,0,0,1,9.7,68a2.47,2.47,0,0,0,1.2.7,1.55,1.55,0,0,0,.8-.8,1.25,1.25,0,0,1,0,.9c1.9.2,2.6-1.3,4-1.1a.1.1,0,0,0,.1-.1,3.06,3.06,0,0,0-2.4-3c-1.8-.3-1.3-1.1-1.3-1.1a2.1,2.1,0,0,1,1.2.3c.1-.2-.1-.5-.1-.5s.1-.4.1-.4c-.9,0-1.1-.2-1.1-.2-.1-.5.2-1.2,1.5-.5a1.08,1.08,0,0,0,.3-.7c.1,0,.2-.2.2-.3s-1-.8-1.3-.8c-.1-.3-.5-.8-1.7-.6-.6.1-1-.1-.8-.4,0-.1-.1-.1-.1,0s-.3.5.2.8a1,1,0,0,1,.6.9c0,.1-.1.1-.2,0-.2-.9-1.5-1.1-2.3-.6,0,.5.6.8.9.8a.43.43,0,0,0,.4-.4c0-.1.1-.1.1,0a.7.7,0,0,1-1.1.6,2.32,2.32,0,0,0-.4,2c.1.6-.2,1.2-.7.9H7.7A.81.81,0,0,0,8.9,65ZM13,61.2c-.4.4-.9.3-1.1-.3C12.7,60.9,13,60.9,13,61.2Zm22.1,1.5a.79.79,0,0,1-.8-.5c0-.1-.1-.1-.1,0a.67.67,0,0,0,.7.9c.5,0,.8-.3,1.5-.5.3,0,.5,0,.5-.1s-.5-.1-.5-.1A5.34,5.34,0,0,1,35.1,62.7Zm7.1,1.8h0c-.6.2-.9-.3-.8-1a1.83,1.83,0,0,0-.4-2,.7.7,0,0,1-1.1-.6c0-.1.1-.1.1,0a.43.43,0,0,0,.4.4,1,1,0,0,0,.9-.8,1.55,1.55,0,0,0-2.3.6c0,.1-.2.1-.2,0a1,1,0,0,1,.6-.9c.5-.2.3-.6.2-.8h-.1c.2.3-.2.5-.8.4-1.2-.2-1.6.3-1.7.6-.3.1-1.3.6-1.3.8s.1.2.2.3a1.08,1.08,0,0,0,.3.7c1.3-.8,1.6,0,1.5.5,0,0-.2.2-1.1.2,0,0,0,.3.1.4a.5.5,0,0,0-.1.5,2.1,2.1,0,0,1,1.2-.3s.5.7-1.3,1.1a3.14,3.14,0,0,0-2.4,3c0,.1,0,.1.1.1,1.5-.3,2.1,1.2,4,1.1a1.25,1.25,0,0,1,0-.9,1.55,1.55,0,0,0,.8.8,2,2,0,0,0,1.2-.7,1.41,1.41,0,0,1-.2-1.7,1.12,1.12,0,0,0,1.4.3c.1,0,.1-.1,0-.1-1.3-.4-.4-1.5-.4-1.6C41.7,65.3,42.2,64.9,42.2,64.5Zm-4.1-3.6a.55.55,0,0,1-1,.3C37.1,60.9,37.4,60.9,38.1,60.9ZM24.7,50.2c0,.2.1.3.1.4s.1.2,0,.3-.1.1-.3,0-.2-.1-.4-.1-.4.2-.4.3.1.3.4.3.3-.1.4-.1.2-.1.3,0,0,.6-.1,1a.82.82,0,0,0-.7.7c0,.5.6.9.9,1,.3-.2.9-.5.9-1a.82.82,0,0,0-.7-.7,5.13,5.13,0,0,1-.1-1s.1-.1.3,0,.2.1.4.1.4-.2.4-.3-.1-.3-.4-.3-.3.1-.4.1-.2.1-.3,0-.1-.1,0-.3.1-.2.1-.4-.2-.4-.3-.4C24.9,49.8,24.7,49.9,24.7,50.2Zm.3,4.1a.7.7,0,1,0,.7.7A.68.68,0,0,0,25,54.3Zm0,6.4a14.56,14.56,0,0,1,4.2.5c0-1.3,0-2.1.8-2-.4-1.1,1.4-1.6,1.4-3,0-1-.7-1.1-.9-1.1-.6,0-.5.4-1,.4h-.1c0,.2.1.5.4.5s.3-.3.6-.3c.1,0,.2.1.2.4a3.33,3.33,0,0,1-.9,1.9c-.1-.2-.3-.2-.5-.2s-.5.3-.5.7a.37.37,0,0,0,.1.3.76.76,0,0,1-.4.1c-.2,0-.5-.1-.5-.6,0-1.1,1.4-2,1.4-3.4A1.21,1.21,0,0,0,28,53.6c-1,0-.8.9-1.6.9h-.1a.55.55,0,0,0,.6.5c.5,0,.6-.8,1-.8.1,0,.4.1.4.6a5.49,5.49,0,0,1-.5,1.8.76.76,0,0,0-.4-.2c-.4,0-.6.3-.6.8a.91.91,0,0,0,.3.7c-.2.3-.4.5-.7.5-.6,0-.8-.3-.8-.7s.7-.5.7-1.1a.56.56,0,0,0-.5-.6c-.3,0-.4.2-.5.2s-.2-.2-.5-.2-.5.2-.5.6c0,.6.7.8.7,1.1a.71.71,0,0,1-.8.7c-.3,0-.5-.2-.7-.5a.91.91,0,0,0,.3-.7c0-.4-.3-.8-.6-.8a.52.52,0,0,0-.4.2,4.93,4.93,0,0,1-.5-1.8c0-.5.2-.6.4-.6.4,0,.5.8,1,.8s.6-.5.6-.5h-.1c-.8,0-.7-.9-1.6-.9a1.21,1.21,0,0,0-1.3,1.3c0,1.4,1.4,2.3,1.4,3.4,0,.5-.3.6-.5.6a.76.76,0,0,1-.4-.1c0-.1.1-.2.1-.3,0-.4-.2-.7-.5-.7a.52.52,0,0,0-.4.2,2.84,2.84,0,0,1-.9-1.9c0-.3.1-.4.2-.4s.2.3.6.3c.2,0,.4-.3.4-.5h-.1c-.5,0-.4-.4-1-.4-.2,0-.9.1-.9,1.1,0,1.5,1.8,1.9,1.4,3,.8-.1.8.6.8,2C20.9,61.2,22.4,60.7,25,60.7Zm-4.9,2c-.7.2-1.2.3-1.5.4a.67.67,0,0,1,.4-.7v-.1c-.6-.4-1,.4-1,.4-.2,0-.6,0-.6.4,0,.9-2.1,1.4-2.6,1.5A2.18,2.18,0,0,1,16,66a7.21,7.21,0,0,1,1.5-1.2c.1,0,.2.2.2.3s0,.1.1,0c.3-.5.2-.6.1-.8a.45.45,0,0,1,.5-.5V70l-.2.1c-.1,0-1-.8-2-1.5s-1.6-.3-2.8.3a3.81,3.81,0,0,1-3.1.1c-1.3.9-1.8,3.7-1.8,3.7a3.59,3.59,0,0,1-1.1.2c-1,0-1.2-.6-1.2-1,0-1.6,2-2.2,2-3.8a1.89,1.89,0,0,0-2.1-1.9H4.4a1,1,0,0,1-1-.7c0-.1-.1,0-.1,0a3.55,3.55,0,0,0-.1.7,1,1,0,0,0,1.1,1A1.17,1.17,0,0,0,5,67c.1,0,.1,0,.1.1a1.36,1.36,0,0,0-.2,1.2H5A1.71,1.71,0,0,1,6.6,67a1,1,0,0,1,1,1.1c0,1.3-2.2,2.2-2.2,3.9s1.9,2.1,2.9,1.9c-.1,1.8-2.1,2.4-2.1,1.1,0-.1-.1-.1-.1,0-.2.6-.2,1.2.6,1.3.1,0,0,0,0,.1-.8.5-.4,2.4-.3,3,.1.8-.8.7-.8.7s-.1,0,0,.1c.7.9,1.4.3,1.4.3.5.2.2.6-.2.9-.1,0-.1.1,0,.1s.9.1,1.1-.6a.83.83,0,0,0,1,.2c.2-.1.9-.4,1,.5,0,.1,0,0,.1,0,.6-.8,0-1.2-.4-1.3a.63.63,0,0,1,.9.1s.1.1.1,0c.1-.9-.7-1-1.2-.6,0-.1-.2-.6.6-.6,0,0,.1,0,0-.1a.71.71,0,0,0-1.2.1c-.3.3-.9.2-1,.2.2-3.3,3.1-2.1,3.5-3.7,0-.1.1-.1.1,0,.1.4,1.1.4,1.3-.3v-.1c-.8.8-2.7-1.8-.1-3.9a3.71,3.71,0,0,1,4.9-.2c0,.3-.1.3-.2.4v.1c.2.1.5.1.6-.1.5.3.1.8-.1.9v.1c.4.1.8-.4.8-.6h.1v1.9c0,2.7,3.1,3,6.4,5.3,3.4-2.3,6.4-2.6,6.4-5.3V72h.1c0,.2.4.7.8.6,0,0,.1,0,0-.1a.51.51,0,0,1-.1-.9c.1.2.4.2.6.1s0-.1,0-.1-.3-.1-.2-.4a3.73,3.73,0,0,1,4.9.2c2.6,2.1.7,4.7-.2,3.9v.1c.2.8,1.2.7,1.3.3,0,0,0-.1.1,0,.4,1.6,3.3.4,3.5,3.7-.1,0-.7.1-1-.2a.76.76,0,0,0-1.2-.1v.1c.8,0,.6.5.6.6-.5-.4-1.3-.3-1.2.6,0,.1,0,.1.1,0,.4-.6.9-.2.9-.1a.76.76,0,0,0-.4,1.3s.1.1.1,0a.61.61,0,0,1,1-.5.82.82,0,0,0,1-.2c.2.7,1,.6,1.1.6s.1,0,0-.1c-.4-.2-.7-.7-.2-.9a.82.82,0,0,0,1.3-.1v-.1c-.1,0-.9.1-.8-.7,0-.6.5-2.5-.3-3,0,0-.1-.1,0-.1.8-.2.9-.7.6-1.3,0-.1-.1-.1-.1,0-.1,1.3-2.1.7-2.1-1.1,1.1.3,2.9-.1,2.9-1.9s-2.2-2.7-2.2-3.9a1,1,0,0,1,1-1.1A1.62,1.62,0,0,1,45,68.5h.1a1.4,1.4,0,0,0-.2-1.2.1.1,0,0,1,.1-.1,1.17,1.17,0,0,0,.7.2,1,1,0,0,0,1.1-1,3.55,3.55,0,0,0-.1-.7c0-.1,0-.1-.1,0a1,1,0,0,1-1,.7H43.9a1.89,1.89,0,0,0-2.1,1.9c0,1.6,2,2.2,2,3.8,0,.4-.2,1-1.2,1a3.09,3.09,0,0,1-1.1-.2s-.5-2.8-1.8-3.7a3.46,3.46,0,0,1-3.1-.1c-1.2-.6-1.7-1.1-2.8-.3s-1.9,1.5-2,1.5l-.2-.1V64a.45.45,0,0,1,.5.5.79.79,0,0,0,.1.8h.1c0-.1.1-.3.2-.3A7.21,7.21,0,0,1,34,66.2a2.59,2.59,0,0,1,1.2-1.4c-.5-.1-2.6-.6-2.6-1.5,0-.3-.3-.4-.6-.4,0,0-.4-.8-1-.4v.1a.67.67,0,0,1,.4.7,22.81,22.81,0,0,0-6.4-.9,22.49,22.49,0,0,0-4,.4v2.1h-.9V62.7h0M14.4,84.6A.57.57,0,0,1,14,84V82.7a10.82,10.82,0,0,0-3.5-.5c-1.7,0-2.3.4-2.3.5l-.5,2.5s.7-.6,3.2-.5c3,.2,6.1,2,6.1.1V83.7C14.7,83.8,14.4,84.5,14.4,84.6ZM33,83.8v1.1c0,1.9,3.1.1,6.2-.1,2.5-.2,3.2.5,3.2.5l-.5-2.5c0-.1-.6-.5-2.3-.5a10.82,10.82,0,0,0-3.5.5v1.3c0,.3-.2.4-.4.6C35.7,84.5,35.3,83.8,33,83.8Zm-8-1.2c4.9,0,9.8.2,10.4,1,0,.1.1,0,.1-.1V81c0-.8-5.1-1.2-10.5-1.2s-10.5.4-10.5,1.2v2.6a.1.1,0,0,0,.1.1C15.2,82.9,20.2,82.6,25,82.6ZM20.7,70.5l-.5-.1v.1l-.6-.2h.5v-.1l-.4-.4a3.22,3.22,0,0,0,.6.2h0a2.88,2.88,0,0,1-.4-.6s.5.3.5.4h0a6.66,6.66,0,0,0-.3-.7l.5.5h0a5.64,5.64,0,0,0-.1-.7l.4.5h0v-.6a2.57,2.57,0,0,1,.2.5h.1a2.57,2.57,0,0,1,.2-.5v.6h-.1l-.1.7c.7-.2,1.6-1.4,2.4-1.4s1.1,1,2.7.5A5.63,5.63,0,0,1,27,71c.6.6,1.4.4,1.4-.2,0-.8-.9-.9-.9-1.8a.92.92,0,0,1,1-.9c.4,0,.9.2,1.2.2a.45.45,0,0,0,.5-.4c0-.1.1-.1.1,0v.4c0,.5-.8.6-.9.5h0a.63.63,0,0,1,0,.6h0a1.06,1.06,0,0,0-.9-.8.42.42,0,0,0-.4.4c0,.5,1,.9,1,1.9s-1,1.3-2,1c0,1,1.5,1.5,1.5.8h0c.2.3.1.5-.2.6.2.1.3.6.4.9.1.5.6.2.6.2h0a.53.53,0,0,1-.7.3c-.2.2,0,.3.3.4v.1c-.2.1-.5.2-.7-.1a.47.47,0,0,1-.5.3c-.2,0-.3.2-.3.4h0c-.4-.3-.2-.6,0-.7,0,0-.3-.2-.5.2h0c-.2-.5.2-.7.5-.5,0-.1-.2-.3-.6-.2h0c.1-.2.3-.4.6-.2s.5-.1.5-.1c-.6-1.3-1.9-.2-2.2-1.2h0c-.1.2-.6.2-.7-.2h0c.1.1.2.2.5-.2a1.85,1.85,0,0,0,.2-.7,2.23,2.23,0,0,0-2-2.1,3.49,3.49,0,0,0-2.2.8l.6.1a.88.88,0,0,1-1.1.8l.1-.7a.54.54,0,0,0-.4.3h0a.46.46,0,0,1,.3-.6h0a.62.62,0,0,0-.5.3h0A.6.6,0,0,1,20.7,70.5Zm1.7,4.4c-.2.3-.4,0-.7,0s-.3.2-.3.3h0c-.3-.4,0-.7.2-.7a.35.35,0,0,0-.5.1h0c0-.5.4-.6.7-.3a.27.27,0,0,0-.3-.3h0a.37.37,0,0,1,.3-.1c.3,0,.3.4.5.4s.7-.4.7-.4a2.87,2.87,0,0,1-.2-1.2h0a.32.32,0,0,1-.5-.3h0c.1.2.4,0,.5-.2A2.58,2.58,0,0,1,24.6,71a1.08,1.08,0,0,1,.7.3c-.3.4,0,.8.2.7h0c-1.3.5-1.8.7-1.8,1.7,0,.6.2.9.5.8h0a.52.52,0,0,1-.4.2c-.3,0-.3-.1-.5-.1s-.6.3-.6.5.1.2.2.3h0C22.9,75.3,22.5,75.3,22.4,74.9Zm3.3-10.2c-.4,0-.6.1-.6.2C25.3,65.1,25.5,65.1,25.7,64.7Zm-1.4,1a1.06,1.06,0,0,1,.6,0v.1c-.6.1-.6.3-1,.3a.45.45,0,0,1-.4-.6c0-.1,0-.1.1,0S23.8,65.8,24.3,65.7ZM16.7,78.5c.4.5.8,0,1.3,0,.2,0,.5.1.6.6h0c.5-.8-.1-1.2-.4-1.2a.67.67,0,0,1,1,.1h.1c0-.9-.7-1-1.2-.6a.47.47,0,0,1,.5-.6s.1,0,0-.1c-.6-.7-1.1.2-1.2.3-.2.3-1.2-.3-1.5-.7a2.79,2.79,0,0,0,.8-1.6v-.1h0a.37.37,0,0,0,.3.1c.2,0,.5-.1.5-.7h0c-.1.1-.2.2-.3.2-.6,0-2-2.2-3.6-2.2a2.83,2.83,0,0,0-1.6.7c.2.1.2.3.2.5s-.2.4-.5.5v.1A12.9,12.9,0,0,1,14.3,75c.4.3.3,1,.1,1.9s-.7.7-.9.7h0a.74.74,0,0,0,.7.3c.4,0,.6-.3.8-.3.4,0,1.1.5,1.1.9,0,.2-.2.4-.4.6h0C15.9,79.1,16.6,79.2,16.7,78.5Zm17.7.6h0c-.2-.2-.4-.4-.4-.6,0-.4.8-.9,1.1-.9s.4.3.8.3a1.08,1.08,0,0,0,.7-.3h0c-.2,0-.7.1-.9-.7s-.3-1.5.1-1.9a22.66,22.66,0,0,1,2.6-1.2v-.1a.82.82,0,0,1-.5-.5c0-.2,0-.4.2-.5a2.83,2.83,0,0,0-1.6-.7c-1.6,0-3,2.2-3.6,2.2-.1,0-.2,0-.3-.2h0c0,.7.3.7.5.7a.37.37,0,0,0,.3-.1h0v.1a2.79,2.79,0,0,0,.8,1.6c-.4.4-1.3,1-1.5.7-.1-.1-.6-1-1.2-.3v.1c.4,0,.6.2.5.6-.5-.4-1.2-.4-1.2.6,0,0,0,.1.1,0,.3-.5.9-.2,1-.1-.4.1-1,.5-.4,1.2h0c.1-.5.4-.6.6-.6.5,0,.9.5,1.3,0C33.5,79.2,34.2,79.1,34.4,79.1ZM21.5,66.6c0,.1-.2,0-.3,0h0c0,.1.2.4.4.4a1,1,0,0,0,.3-.1s.9.3,1.4.4a1.14,1.14,0,0,0-.3.8c-.4-.2-1.9-1-1.9-1l-.5.6c-.1.1-.5-.2-.4-.3l.4-.5a.45.45,0,0,0-.5,0h0c0-.1.2-.4.7-.3,0-.3-.4-.2-.5-.2h0a.67.67,0,0,1,.8-.2l.2-.2-.3-.3.2-.3.2.3,1.7-2.4c0-.1.4-.2.5-.2v.5L21.9,66l.4.1-.3.5-.4-.2Zm6-.4c0,.2.1.5.4.4h0c0,.2-.5.5-.7.2a.63.63,0,0,0,.2.9v.1c-.1.2-.4.2-.6-.2a.64.64,0,0,0-.1.9,2.13,2.13,0,0,1-1.6.2c-.5-.2-.9-.6-1.6-.5.1-.9.6-1.2,1.4-1.3s.8-.4.7-.7c-.2-.1-.7.2-.7.2s0-.3,0-.3a.35.35,0,0,0-.1-.2c.5,0,.6-.1.6-.1.1-.5-.4-.6-.8-.3a.35.35,0,0,1-.1-.4.35.35,0,0,1-.1-.2c0-.1.6-.4.7-.5s.2-.4.9-.3a1.34,1.34,0,0,0-.1-.9s0-.1.1,0,.4.6.6.6c0,0,.7-.4.7-.3l.1.8c.1.1.6,0,.9.1.1,0,.1.1,0,.1a2,2,0,0,0-.8.4C27.7,65.3,27.5,66,27.5,66.2Z" transform="translate(0 0)"/></g></svg>